<svg width="153" height="30" viewBox="0 0 153 30" fill="none" xmlns="http://www.w3.org/2000/svg">
<path d="M19.0469 1.38462V16.6923L0 0V28.6154H6.40102V13.3077L25.526 30V1.38462H19.0469Z" fill="#3EB875"/>
<path d="M35.2056 23.2309V28.6155H49.1786V23.2309H35.2056ZM35.2056 11.6155V16.9232H48.3979V11.6155H35.2056ZM35.2056 1.38477V6.76938H49.1786V1.38477H35.2056ZM30.7561 1.38477V28.6155H37.1571V1.38477H30.7561Z" fill="#3EB875"/>
<path d="M51.1301 1.38477V7.23092H58.7021V28.6155H65.4153V7.23092H73.0653V1.38477H51.1301Z" fill="#3EB875"/>
<path d="M94.1418 1.38462V16.6923L75.0949 0V28.6154H81.4959V13.3077L100.621 30V1.38462H94.1418Z" fill="#3EB875"/>
<path d="M110.301 23.2309V28.6155H124.273V23.2309H110.301ZM110.301 11.6155V16.9232H123.493V11.6155H110.301ZM110.301 1.38477V6.76938H124.273V1.38477H110.301ZM105.851 1.38477V28.6155H112.252V1.38477H105.851Z" fill="#3EB875"/>
<path d="M146.989 19.5386H139.73L144.804 28.6155H153L146.989 19.5386ZM152.375 1.38477H144.101L139.73 9.30784L135.436 1.38477H127.162L135.67 14.6155L126.225 28.6155H134.499L139.73 19.5386L143.789 14.6155L152.375 1.38477Z" fill="#3EB875"/>
</svg>
