<svg xmlns="http://www.w3.org/2000/svg" xmlns:xlink="http://www.w3.org/1999/xlink" width="343.817" height="337" viewBox="0 0 343.817 337">
  <defs>
    <filter id="_1bdda1f45277e0372b0d5be5a6e60339" x="0" y="0" width="343.817" height="337" filterUnits="userSpaceOnUse">
      <feOffset dy="22" input="SourceAlpha"/>
      <feGaussianBlur stdDeviation="31.5" result="blur"/>
      <feFlood flood-opacity="0.161"/>
      <feComposite operator="in" in2="blur"/>
      <feComposite in="SourceGraphic"/>
    </filter>
  </defs>
  <g transform="matrix(1, 0, 0, 1, 0, 0)" filter="url(#_1bdda1f45277e0372b0d5be5a6e60339)">
    <path id="_1bdda1f45277e0372b0d5be5a6e60339-2" data-name="1bdda1f45277e0372b0d5be5a6e60339" d="M122.466,150.44H36.351a7.741,7.741,0,0,1-7.363-5.352L2.379,63.19a7.732,7.732,0,0,1,2.812-8.648L74.858,3.925a7.713,7.713,0,0,1,9.1,0l69.667,50.617a7.732,7.732,0,0,1,2.812,8.648l-26.609,81.9A7.741,7.741,0,0,1,122.466,150.44Z" transform="translate(92.5 70.06)" fill="#0a57a7" opacity="0.15"/>
  </g>
</svg>
